<svg xmlns="http://www.w3.org/2000/svg" viewBox="0 0 107.45 62.36"><defs><style>.a{fill:#ff7900;}</style></defs><title>box</title><path d="M106.69.88a2.79,2.79,0,0,0-2-.88H28.86a2.79,2.79,0,0,0-1.68.56L1.21,20.2a2.78,2.78,0,0,0-.91,1l0,0a2.78,2.78,0,0,0-.2.56v.06a2.78,2.78,0,0,0-.06.58s0,0,0,0H0s0,0,0,0L.6,47.11a2.79,2.79,0,0,0,1,2.06L16.19,61.54h0l.12.1.06,0h0a2.78,2.78,0,0,0,.36.25l.1.05a2.78,2.78,0,0,0,.33.15l.22.07.25.07a2.78,2.78,0,0,0,.52.05h0l64.27-1.2a2.79,2.79,0,0,0,2.61-1.94l20.55-32.31a2.79,2.79,0,0,0,.43-1.33L107.44,3A2.79,2.79,0,0,0,106.69.88Z"/><path class="a" d="M16.73,55.12a1.6,1.6,0,0,1-1-.36L5.27,46.22A1.61,1.61,0,0,1,4.69,45L4.27,27.7A1.6,1.6,0,0,1,6.8,26.36l11,7.83a1.6,1.6,0,0,1,.67,1.32l-.13,18a1.6,1.6,0,0,1-1.6,1.59Z"/></svg>