<svg xmlns="http://www.w3.org/2000/svg" width="115.844" height="19.37" viewBox="0 0 115.844 19.37">
  <metadata><?xpacket begin="﻿" id="W5M0MpCehiHzreSzNTczkc9d"?>
<x:xmpmeta xmlns:x="adobe:ns:meta/" x:xmptk="Adobe XMP Core 5.6-c138 79.159824, 2016/09/14-01:09:01        ">
   <rdf:RDF xmlns:rdf="http://www.w3.org/1999/02/22-rdf-syntax-ns#">
      <rdf:Description rdf:about=""/>
   </rdf:RDF>
</x:xmpmeta>
                                                                                                    
                                                                                                    
                                                                                                    
                                                                                                    
                                                                                                    
                                                                                                    
                                                                                                    
                                                                                                    
                                                                                                    
                                                                                                    
                                                                                                    
                                                                                                    
                                                                                                    
                                                                                                    
                                                                                                    
                                                                                                    
                                                                                                    
                                                                                                    
                                                                                                    
                                                                                                    
                           
<?xpacket end="w"?></metadata>
<defs>
    <style>
      .cls-1 {
        fill: #fff;
        fill-rule: evenodd;
      }
    </style>
  </defs>
  <path id="cta" class="cls-1" d="M999.513,1394.5a4.073,4.073,0,0,1-2.254,3.02,5.921,5.921,0,0,1-2.752.53,6.588,6.588,0,0,1-1.885-.27,4.748,4.748,0,0,1-1.626-.84,4.151,4.151,0,0,1-1.148-1.47,5,5,0,0,1-.434-2.18v-1.34h3.078v0.69a5.788,5.788,0,0,0,.086,1.04,2.156,2.156,0,0,0,.3.81,1.468,1.468,0,0,0,.6.53,2.15,2.15,0,0,0,.986.2,1.9,1.9,0,0,0,1.04-.24,1.351,1.351,0,0,0,.531-0.62,2.5,2.5,0,0,0,.2-0.82c0.021-.3.032-0.58,0.032-0.85v-10.44h3.4v10.59A10.112,10.112,0,0,1,999.513,1394.5Zm5.827-12.25v6.95h-2.32v-6.95h2.32Zm9.79,6.89a2.148,2.148,0,0,0-1.68-.61,2.669,2.669,0,0,0-1.23.25,2.41,2.41,0,0,0-.78.61,2.444,2.444,0,0,0-.41.78,3.275,3.275,0,0,0-.14.74h5.01A3.636,3.636,0,0,0,1015.13,1389.14Zm-3.48,5.88a2.723,2.723,0,0,0,1.99.67,2.772,2.772,0,0,0,1.61-.46,1.949,1.949,0,0,0,.82-0.99h2.71a5.1,5.1,0,0,1-2,2.88,5.84,5.84,0,0,1-3.25.87,6.426,6.426,0,0,1-2.38-.42,5.035,5.035,0,0,1-1.8-1.2,5.434,5.434,0,0,1-1.14-1.87,6.948,6.948,0,0,1-.4-2.38,6.694,6.694,0,0,1,.41-2.34,5.7,5.7,0,0,1,1.17-1.87,5.608,5.608,0,0,1,1.81-1.24,5.7,5.7,0,0,1,2.33-.46,5.452,5.452,0,0,1,2.5.55,5.12,5.12,0,0,1,1.74,1.49,6.358,6.358,0,0,1,.99,2.12,7.878,7.878,0,0,1,.21,2.49h-8.08A3.085,3.085,0,0,0,1011.65,1395.02Zm12.07-8.5v1.55h0.06a3.545,3.545,0,0,1,1.52-1.41,4.349,4.349,0,0,1,1.91-.45,5.064,5.064,0,0,1,2.02.34,2.921,2.921,0,0,1,1.25.93,3.627,3.627,0,0,1,.64,1.45,9.191,9.191,0,0,1,.18,1.89v6.89h-3.07v-6.32a3.886,3.886,0,0,0-.44-2.07,1.667,1.667,0,0,0-1.54-.68,2.166,2.166,0,0,0-1.82.74,4.209,4.209,0,0,0-.56,2.46v5.87h-3.08v-11.19h2.93Zm22.87,8.87a2.386,2.386,0,0,0,.82-0.79,3.24,3.24,0,0,0,.45-1.14,7.2,7.2,0,0,0,.13-1.32,6.579,6.579,0,0,0-.14-1.32,3.48,3.48,0,0,0-.47-1.15,2.631,2.631,0,0,0-.83-0.83,2.342,2.342,0,0,0-1.25-.31,2.392,2.392,0,0,0-1.27.31,2.539,2.539,0,0,0-.82.81,3.318,3.318,0,0,0-.44,1.15,6.55,6.55,0,0,0-.13,1.34,5.8,5.8,0,0,0,.14,1.32,3.24,3.24,0,0,0,.45,1.14,2.361,2.361,0,0,0,.84.79,2.436,2.436,0,0,0,1.25.3A2.461,2.461,0,0,0,1046.59,1395.39Zm-4-8.87v1.42h0.05a3.412,3.412,0,0,1,1.43-1.32,4.406,4.406,0,0,1,1.9-.41,4.916,4.916,0,0,1,2.28.5,4.713,4.713,0,0,1,1.58,1.32,5.536,5.536,0,0,1,.93,1.92,8.594,8.594,0,0,1,.31,2.28,7.849,7.849,0,0,1-.31,2.17,5.581,5.581,0,0,1-.92,1.84,4.435,4.435,0,0,1-1.54,1.27,4.576,4.576,0,0,1-2.15.48,4.358,4.358,0,0,1-1.92-.42,3.547,3.547,0,0,1-1.44-1.25h-0.05v5.31h-3.07v-15.11h2.92Zm13.24,0v2.07h0.05a3.965,3.965,0,0,1,.58-0.96,4.1,4.1,0,0,1,.85-0.76,3.75,3.75,0,0,1,1.01-.48,3.61,3.61,0,0,1,1.13-.18,2.459,2.459,0,0,1,.67.11v2.86a4.457,4.457,0,0,0-.52-0.08,5.781,5.781,0,0,0-.58-0.03,3.227,3.227,0,0,0-1.43.28,2.473,2.473,0,0,0-.94.77,2.971,2.971,0,0,0-.51,1.14,5.662,5.662,0,0,0-.16,1.4v5.05h-3.07v-11.19h2.92Zm7.98,6.91a3.318,3.318,0,0,0,.44,1.15,2.33,2.33,0,0,0,.84.81,2.552,2.552,0,0,0,1.3.3,2.643,2.643,0,0,0,1.31-.3,2.33,2.33,0,0,0,.84-0.81,3.542,3.542,0,0,0,.45-1.15,7.01,7.01,0,0,0,.13-1.31,7.291,7.291,0,0,0-.13-1.32,3.542,3.542,0,0,0-.45-1.15,2.507,2.507,0,0,0-.84-0.81,2.541,2.541,0,0,0-1.31-.31,2.454,2.454,0,0,0-1.3.31,2.507,2.507,0,0,0-.84.81,3.318,3.318,0,0,0-.44,1.15,6.494,6.494,0,0,0-.13,1.32A6.26,6.26,0,0,0,1063.81,1393.43Zm-2.8-3.74a5.36,5.36,0,0,1,1.17-1.86,5.3,5.3,0,0,1,1.82-1.2,7.01,7.01,0,0,1,4.78,0,5.157,5.157,0,0,1,1.83,1.2,5.083,5.083,0,0,1,1.17,1.86,6.736,6.736,0,0,1,.41,2.43,6.662,6.662,0,0,1-.41,2.43,5.068,5.068,0,0,1-3,3.03,7.171,7.171,0,0,1-4.78,0,5.252,5.252,0,0,1-1.82-1.18,5.41,5.41,0,0,1-1.17-1.85,6.879,6.879,0,0,1-.41-2.43A6.959,6.959,0,0,1,1061.01,1389.69Zm12.01-1.12v-2.05h1.84v-0.87a3.365,3.365,0,0,1,.93-2.45,3.8,3.8,0,0,1,2.82-.95c0.27,0,.55.01,0.82,0.03s0.54,0.04.8,0.06v2.29a10.1,10.1,0,0,0-1.12-.06,1.2,1.2,0,0,0-.9.29,1.418,1.418,0,0,0-.27.98v0.68h2.12v2.05h-2.12v9.14h-3.08v-9.14h-1.84Zm8.47-3.79v-2.53h3.08v2.53h-3.08Zm3.08,1.74v11.19h-3.08v-11.19h3.08Zm8.58,0v2.05h-2.26v5.54a1.518,1.518,0,0,0,.26,1.04,1.482,1.482,0,0,0,1.04.26,4.017,4.017,0,0,0,.5-0.02,3.4,3.4,0,0,0,.46-0.06v2.38a7.183,7.183,0,0,1-.87.08q-0.48.03-.93,0.03a9.767,9.767,0,0,1-1.36-.1,3.222,3.222,0,0,1-1.12-.38,2.044,2.044,0,0,1-.77-0.8,2.85,2.85,0,0,1-.28-1.37v-6.6h-1.87v-2.05h1.87v-3.36h3.07v3.36h2.26Zm8.24,2.62a2.148,2.148,0,0,0-1.68-.61,2.6,2.6,0,0,0-1.22.25,2.213,2.213,0,0,0-.78.61,2.26,2.26,0,0,0-.41.78,3.275,3.275,0,0,0-.14.74h5A3.461,3.461,0,0,0,1101.39,1389.14Zm-3.47,5.88a3.163,3.163,0,0,0,3.59.21,1.975,1.975,0,0,0,.83-0.99h2.7a5.047,5.047,0,0,1-1.99,2.88,5.84,5.84,0,0,1-3.25.87,6.389,6.389,0,0,1-2.38-.42,5.035,5.035,0,0,1-1.8-1.2,5.434,5.434,0,0,1-1.14-1.87,7.077,7.077,0,0,1,.01-4.72,5.7,5.7,0,0,1,1.17-1.87,5.608,5.608,0,0,1,1.81-1.24,5.7,5.7,0,0,1,2.33-.46,5.439,5.439,0,0,1,2.49.55,5.062,5.062,0,0,1,1.75,1.49,6.151,6.151,0,0,1,.98,2.12,7.6,7.6,0,0,1,.22,2.49h-8.08A3.04,3.04,0,0,0,1097.92,1395.02Z" transform="translate(-989.406 -1382.25)"/>
</svg>
