<svg xmlns="http://www.w3.org/2000/svg" width="280.25" height="43.718" viewBox="0 0 280.25 43.718">
  <metadata><?xpacket begin="﻿" id="W5M0MpCehiHzreSzNTczkc9d"?>
<x:xmpmeta xmlns:x="adobe:ns:meta/" x:xmptk="Adobe XMP Core 5.6-c138 79.159824, 2016/09/14-01:09:01        ">
   <rdf:RDF xmlns:rdf="http://www.w3.org/1999/02/22-rdf-syntax-ns#">
      <rdf:Description rdf:about=""/>
   </rdf:RDF>
</x:xmpmeta>
                                                                                                    
                                                                                                    
                                                                                                    
                                                                                                    
                                                                                                    
                                                                                                    
                                                                                                    
                                                                                                    
                                                                                                    
                                                                                                    
                                                                                                    
                                                                                                    
                                                                                                    
                                                                                                    
                                                                                                    
                                                                                                    
                                                                                                    
                                                                                                    
                                                                                                    
                                                                                                    
                           
<?xpacket end="w"?></metadata>
<defs>
    <style>
      .cls-1 {
        fill: #fff;
        fill-rule: evenodd;
      }
    </style>
  </defs>
  <path id="taa" class="cls-1" d="M2043.4,965.834v26.772h16v6.072h-23.23V965.834h7.23Zm33.74,14.628a4.605,4.605,0,0,0-3.57-1.288,5.7,5.7,0,0,0-2.6.529,4.892,4.892,0,0,0-1.65,1.311,4.753,4.753,0,0,0-.88,1.656,7.381,7.381,0,0,0-.3,1.564h10.63A7.6,7.6,0,0,0,2077.14,980.462Zm-7.39,12.512a6.7,6.7,0,0,0,7.64.437,4.137,4.137,0,0,0,1.75-2.093h5.75a10.917,10.917,0,0,1-4.23,6.118,12.5,12.5,0,0,1-6.9,1.84,13.539,13.539,0,0,1-5.06-.9,10.445,10.445,0,0,1-3.82-2.553,11.425,11.425,0,0,1-2.42-3.956,14.418,14.418,0,0,1-.85-5.06,13.72,13.72,0,0,1,.88-4.968,11.477,11.477,0,0,1,6.32-6.624,12.348,12.348,0,0,1,4.95-.966,11.341,11.341,0,0,1,5.29,1.173,10.614,10.614,0,0,1,3.7,3.151,13.072,13.072,0,0,1,2.09,4.508,16.849,16.849,0,0,1,.46,5.29h-17.16A6.646,6.646,0,0,0,2069.75,992.974Zm49.31-9.062a7.472,7.472,0,0,0-1.01-2.438,5.289,5.289,0,0,0-1.72-1.679,5.322,5.322,0,0,0-4.99,0,5.19,5.19,0,0,0-1.75,1.679,7.472,7.472,0,0,0-1.01,2.438,12.423,12.423,0,0,0-.33,2.9,12.217,12.217,0,0,0,.33,2.852,7.463,7.463,0,0,0,1.01,2.438,5.18,5.18,0,0,0,1.75,1.679,5.322,5.322,0,0,0,4.99,0,5.279,5.279,0,0,0,1.72-1.679,7.463,7.463,0,0,0,1.01-2.438,12.217,12.217,0,0,0,.33-2.852A12.423,12.423,0,0,0,2119.06,983.912Zm-10.58-18.078v11.96h0.1a6.957,6.957,0,0,1,3.24-2.691,10.951,10.951,0,0,1,4.25-.851,9.064,9.064,0,0,1,6.7,2.99,11.562,11.562,0,0,1,2.27,3.887,18.482,18.482,0,0,1,0,11.27,11.553,11.553,0,0,1-2.27,3.887,9.064,9.064,0,0,1-6.7,2.99,12.566,12.566,0,0,1-4.69-.828,5.975,5.975,0,0,1-3.13-2.806h-0.09v3.036h-6.21V965.834h6.53Zm27.65,23.759a7.416,7.416,0,0,0,.94,2.438,5.109,5.109,0,0,0,1.77,1.725,5.42,5.42,0,0,0,2.76.644,5.537,5.537,0,0,0,2.79-.644,4.922,4.922,0,0,0,1.79-1.725,7.2,7.2,0,0,0,.94-2.438,13.5,13.5,0,0,0,.28-2.783,13.839,13.839,0,0,0-.28-2.806,6.975,6.975,0,0,0-.94-2.438,5.2,5.2,0,0,0-1.79-1.725,5.4,5.4,0,0,0-2.79-.667,5.283,5.283,0,0,0-2.76.667,5.407,5.407,0,0,0-1.77,1.725,7.175,7.175,0,0,0-.94,2.438,14.591,14.591,0,0,0-.28,2.806A14.222,14.222,0,0,0,2136.13,989.593Zm-5.93-7.958a10.863,10.863,0,0,1,6.34-6.486,13.613,13.613,0,0,1,5.06-.9,13.811,13.811,0,0,1,5.09.9,10.875,10.875,0,0,1,6.37,6.486,14.662,14.662,0,0,1,.87,5.175,14.466,14.466,0,0,1-.87,5.152,11.047,11.047,0,0,1-2.49,3.933,10.738,10.738,0,0,1-3.88,2.507,14.15,14.15,0,0,1-5.09.874,13.946,13.946,0,0,1-5.06-.874,10.831,10.831,0,0,1-3.86-2.507,11.165,11.165,0,0,1-2.48-3.933,14.247,14.247,0,0,1-.88-5.152A14.439,14.439,0,0,1,2130.2,981.635Zm34.17-6.739v3.312h0.14a7.5,7.5,0,0,1,3.22-3.013,9.334,9.334,0,0,1,4.05-.943,11.09,11.09,0,0,1,4.3.713,6.437,6.437,0,0,1,2.65,1.978,7.7,7.7,0,0,1,1.35,3.082,19.22,19.22,0,0,1,.39,4.025v14.628h-6.53V985.246a8.272,8.272,0,0,0-.92-4.393,3.553,3.553,0,0,0-3.26-1.449,4.539,4.539,0,0,0-3.87,1.587c-0.8,1.058-1.19,2.8-1.19,5.221v12.466h-6.54V974.9h6.21Zm50.47,8.993a6.941,6.941,0,0,0-.95-2.392,5.307,5.307,0,0,0-1.72-1.679,5.086,5.086,0,0,0-2.67-.644,5.288,5.288,0,0,0-2.71.644,5.139,5.139,0,0,0-1.78,1.7,7.651,7.651,0,0,0-.96,2.415,13.075,13.075,0,0,0-.3,2.829,12.375,12.375,0,0,0,.32,2.76,7.553,7.553,0,0,0,1.04,2.461,5.666,5.666,0,0,0,1.79,1.748,4.858,4.858,0,0,0,2.6.667,5.177,5.177,0,0,0,2.69-.644,4.911,4.911,0,0,0,1.73-1.725,8.106,8.106,0,0,0,.92-2.461,14.816,14.816,0,0,0,.27-2.852A14.473,14.473,0,0,0,2214.84,983.889Zm0.27,11.753a6.757,6.757,0,0,1-3.01,2.783,10.036,10.036,0,0,1-4.21.851,10.158,10.158,0,0,1-4.69-1.035,9.479,9.479,0,0,1-3.34-2.806,12.921,12.921,0,0,1-1.98-4.071,17.257,17.257,0,0,1-.66-4.784,16.217,16.217,0,0,1,.66-4.623,12.211,12.211,0,0,1,1.98-3.933,9.92,9.92,0,0,1,3.29-2.737,9.781,9.781,0,0,1,4.6-1.035,9.4,9.4,0,0,1,4.03.9,7.044,7.044,0,0,1,3.01,2.645h0.09v-11.96h6.53v32.844h-6.21v-3.036h-0.09Zm25.6-15.18a4.582,4.582,0,0,0-3.56-1.288,5.674,5.674,0,0,0-2.6.529,4.933,4.933,0,0,0-1.66,1.311,4.724,4.724,0,0,0-.87,1.656,7.381,7.381,0,0,0-.3,1.564h10.62A7.509,7.509,0,0,0,2240.71,980.462Zm-7.38,12.512a6.687,6.687,0,0,0,7.63.437,4.087,4.087,0,0,0,1.75-2.093h5.75a10.917,10.917,0,0,1-4.23,6.118,12.448,12.448,0,0,1-6.9,1.84,13.576,13.576,0,0,1-5.06-.9,10.529,10.529,0,0,1-3.82-2.553,11.4,11.4,0,0,1-2.41-3.956,14.418,14.418,0,0,1-.85-5.06,13.933,13.933,0,0,1,.87-4.968,11.669,11.669,0,0,1,2.48-3.979,11.84,11.84,0,0,1,3.84-2.645,12.348,12.348,0,0,1,4.95-.966,11.312,11.312,0,0,1,5.29,1.173,10.525,10.525,0,0,1,3.7,3.151,12.91,12.91,0,0,1,2.1,4.508,17.15,17.15,0,0,1,.46,5.29h-17.16A6.6,6.6,0,0,0,2233.33,992.974Zm5.15-30.406-4.88,8.142h4.56l7.5-8.142h-7.18Zm31.37,21.344a7.472,7.472,0,0,0-1.01-2.438,5.319,5.319,0,0,0-1.73-1.679,4.765,4.765,0,0,0-2.5-.621,4.854,4.854,0,0,0-2.49.621,5.282,5.282,0,0,0-1.75,1.679,7.7,7.7,0,0,0-1.01,2.438,12.986,12.986,0,0,0-.32,2.9,12.773,12.773,0,0,0,.32,2.852,7.686,7.686,0,0,0,1.01,2.438,5.272,5.272,0,0,0,1.75,1.679,4.854,4.854,0,0,0,2.49.621,4.765,4.765,0,0,0,2.5-.621,5.308,5.308,0,0,0,1.73-1.679,7.463,7.463,0,0,0,1.01-2.438,12.214,12.214,0,0,0,.32-2.852A12.426,12.426,0,0,0,2269.85,983.912Zm-10.58-18.078v11.96h0.09a6.982,6.982,0,0,1,3.25-2.691,10.951,10.951,0,0,1,4.25-.851,9.065,9.065,0,0,1,6.69,2.99,11.414,11.414,0,0,1,2.28,3.887,18.684,18.684,0,0,1,0,11.27,11.4,11.4,0,0,1-2.28,3.887,9.065,9.065,0,0,1-6.69,2.99,12.529,12.529,0,0,1-4.69-.828,5.975,5.975,0,0,1-3.13-2.806h-0.09v3.036h-6.21V965.834h6.53Zm21.76,5.382v-5.382h6.53v5.382h-6.53Zm6.53,3.68v23.782h-6.53V974.9h6.53Zm18.22,0v4.37h-4.79v11.776a2.211,2.211,0,0,0,2.76,2.76c0.37,0,.72-0.015,1.06-0.046a8.915,8.915,0,0,0,.97-0.138v5.06a15.9,15.9,0,0,1-1.84.184q-1.02.045-1.98,0.046a19.207,19.207,0,0,1-2.88-.207,6.8,6.8,0,0,1-2.39-.805,4.259,4.259,0,0,1-1.63-1.7,6.06,6.06,0,0,1-.6-2.9v-14.03h-3.96V974.9h3.96v-7.13h6.53v7.13h4.79Zm10.67,16.7v7.084a6.948,6.948,0,0,1-.58,2.872,7.113,7.113,0,0,1-1.54,2.28,8.162,8.162,0,0,1-2.28,1.59,10.436,10.436,0,0,1-2.78.85v-3.31a3.688,3.688,0,0,0,1.31-.56,4.252,4.252,0,0,0,1.08-.99,3.874,3.874,0,0,0,.69-1.28,3.8,3.8,0,0,0,.19-1.452h-3.31v-7.084h7.22Z" transform="translate(-2036.19 -962.562)"/>
</svg>
