<svg xmlns="http://www.w3.org/2000/svg" width="320.72" height="33.44" viewBox="0 0 320.72 33.44">
  <metadata><?xpacket begin="﻿" id="W5M0MpCehiHzreSzNTczkc9d"?>
<x:xmpmeta xmlns:x="adobe:ns:meta/" x:xmptk="Adobe XMP Core 5.6-c138 79.159824, 2016/09/14-01:09:01        ">
   <rdf:RDF xmlns:rdf="http://www.w3.org/1999/02/22-rdf-syntax-ns#">
      <rdf:Description rdf:about=""/>
   </rdf:RDF>
</x:xmpmeta>
                                                                                                    
                                                                                                    
                                                                                                    
                                                                                                    
                                                                                                    
                                                                                                    
                                                                                                    
                                                                                                    
                                                                                                    
                                                                                                    
                                                                                                    
                                                                                                    
                                                                                                    
                                                                                                    
                                                                                                    
                                                                                                    
                                                                                                    
                                                                                                    
                                                                                                    
                                                                                                    
                           
<?xpacket end="w"?></metadata>
<defs>
    <style>
      .cls-1 {
        fill: #ff7900;
        fill-rule: evenodd;
      }
    </style>
  </defs>
  <path id="tab" class="cls-1" d="M2042.2,1020.83v32.85h-6.53v-32.85h6.53Zm19.53,14.63a4.6,4.6,0,0,0-3.57-1.29,5.729,5.729,0,0,0-2.6.53,4.989,4.989,0,0,0-1.65,1.31,4.858,4.858,0,0,0-.88,1.66,7.314,7.314,0,0,0-.3,1.56h10.63A7.618,7.618,0,0,0,2061.73,1035.46Zm-7.39,12.51a6.692,6.692,0,0,0,7.64.44,4.159,4.159,0,0,0,1.75-2.09h5.75a10.943,10.943,0,0,1-4.23,6.12,12.553,12.553,0,0,1-6.9,1.84,13.5,13.5,0,0,1-5.06-.9,10.513,10.513,0,0,1-3.82-2.55,11.536,11.536,0,0,1-2.42-3.96,14.406,14.406,0,0,1-.85-5.06,13.746,13.746,0,0,1,.88-4.97,11.7,11.7,0,0,1,2.48-3.98,11.544,11.544,0,0,1,3.84-2.64,12.248,12.248,0,0,1,4.95-.97,11.365,11.365,0,0,1,5.29,1.17,10.7,10.7,0,0,1,3.7,3.16,13.007,13.007,0,0,1,2.09,4.5,16.857,16.857,0,0,1,.46,5.29h-17.16A6.638,6.638,0,0,0,2054.34,1047.97Zm37.7-.2a3.846,3.846,0,0,0,1.13,1.24,4.837,4.837,0,0,0,1.58.71,7.205,7.205,0,0,0,1.87.23,6.843,6.843,0,0,0,1.45-.16,5.168,5.168,0,0,0,1.38-.51,3.03,3.03,0,0,0,1.03-.92,2.363,2.363,0,0,0,.42-1.44c0-.99-0.66-1.72-1.96-2.21a38.958,38.958,0,0,0-5.45-1.47c-0.95-.22-1.88-0.47-2.78-0.76a9.671,9.671,0,0,1-2.42-1.15,5.727,5.727,0,0,1-1.7-1.8,5.063,5.063,0,0,1-.64-2.64,7.11,7.11,0,0,1,.89-3.77,6.612,6.612,0,0,1,2.37-2.33,10.6,10.6,0,0,1,3.31-1.19,20.523,20.523,0,0,1,3.78-.35,18.461,18.461,0,0,1,3.74.37,10.037,10.037,0,0,1,3.25,1.24,7.493,7.493,0,0,1,2.37,2.32,7.906,7.906,0,0,1,1.12,3.66h-6.21a2.833,2.833,0,0,0-1.42-2.55,6.461,6.461,0,0,0-3.04-.67,10.08,10.08,0,0,0-1.19.07,4.254,4.254,0,0,0-1.18.3,2.357,2.357,0,0,0-.89.67,1.729,1.729,0,0,0-.37,1.17,1.8,1.8,0,0,0,.64,1.43,5.115,5.115,0,0,0,1.68.89,20.165,20.165,0,0,0,2.37.62c0.89,0.19,1.79.39,2.71,0.6q1.425,0.33,2.79.78a9.4,9.4,0,0,1,2.41,1.22,5.912,5.912,0,0,1,1.7,1.89,5.523,5.523,0,0,1,.65,2.78,7.525,7.525,0,0,1-.95,3.93,7.446,7.446,0,0,1-2.46,2.56,10.141,10.141,0,0,1-3.47,1.35,19.867,19.867,0,0,1-8.03-.02,10.446,10.446,0,0,1-3.52-1.38,7.9,7.9,0,0,1-2.53-2.55,8,8,0,0,1-1.08-3.98h6.21A3.606,3.606,0,0,0,2092.04,1047.77Zm33.58-12.31a4.584,4.584,0,0,0-3.57-1.29,5.685,5.685,0,0,0-2.59.53,5.031,5.031,0,0,0-1.66,1.31,4.828,4.828,0,0,0-.87,1.66,7.314,7.314,0,0,0-.3,1.56h10.62A7.53,7.53,0,0,0,2125.62,1035.46Zm-7.38,12.51a6.677,6.677,0,0,0,7.63.44,4.109,4.109,0,0,0,1.75-2.09h5.75a10.943,10.943,0,0,1-4.23,6.12,12.506,12.506,0,0,1-6.9,1.84,13.535,13.535,0,0,1-5.06-.9,10.6,10.6,0,0,1-3.82-2.55,11.514,11.514,0,0,1-2.41-3.96,14.406,14.406,0,0,1-.86-5.06,13.963,13.963,0,0,1,.88-4.97,11.447,11.447,0,0,1,6.32-6.62,12.248,12.248,0,0,1,4.95-.97,11.336,11.336,0,0,1,5.29,1.17,10.611,10.611,0,0,1,3.7,3.16,12.828,12.828,0,0,1,2.09,4.5,16.567,16.567,0,0,1,.46,5.29h-17.15A6.546,6.546,0,0,0,2118.24,1047.97Zm25.62-18.07v4.41h0.09a8.127,8.127,0,0,1,3.04-3.66,8.937,8.937,0,0,1,2.16-1.03,7.611,7.611,0,0,1,2.39-.37,5.292,5.292,0,0,1,1.43.23v6.07c-0.31-.06-0.68-0.11-1.11-0.16s-0.84-.07-1.24-0.07a6.951,6.951,0,0,0-3.04.6,5.353,5.353,0,0,0-2,1.63,6.76,6.76,0,0,0-1.08,2.42,13.439,13.439,0,0,0-.32,2.99v10.72h-6.53V1029.9h6.21Zm17.57,23.78-8.14-23.78h6.85l5.02,16.23h0.09l5.01-16.23h6.49l-8.05,23.78h-7.27Zm18.22-27.46v-5.39h6.53v5.39h-6.53Zm6.53,3.68v23.78h-6.53V1029.9h6.53Zm16.51,4.27a4.541,4.541,0,0,0-2.62.72,5.648,5.648,0,0,0-1.73,1.84,8.224,8.224,0,0,0-.94,2.48,13.788,13.788,0,0,0-.27,2.69,13.171,13.171,0,0,0,.27,2.62,8.133,8.133,0,0,0,.9,2.42,5.08,5.08,0,0,0,1.68,1.77,4.586,4.586,0,0,0,2.57.69,4.784,4.784,0,0,0,3.61-1.31,6.158,6.158,0,0,0,1.59-3.52h6.3a10.733,10.733,0,0,1-3.68,7.22,11.837,11.837,0,0,1-7.77,2.49,12.988,12.988,0,0,1-4.9-.9,10.737,10.737,0,0,1-3.79-2.51,11.207,11.207,0,0,1-2.44-3.84,13.181,13.181,0,0,1-.88-4.9,15.763,15.763,0,0,1,.81-5.13,11.313,11.313,0,0,1,2.37-4.09,10.709,10.709,0,0,1,3.82-2.69,12.855,12.855,0,0,1,5.15-.97,15.258,15.258,0,0,1,4.07.55,10.865,10.865,0,0,1,3.49,1.68,8.718,8.718,0,0,1,3.62,6.79h-6.4q-0.645-4.1-4.83-4.1h0Zm29.42,1.29a4.584,4.584,0,0,0-3.57-1.29,5.729,5.729,0,0,0-2.6.53,4.989,4.989,0,0,0-1.65,1.31,4.858,4.858,0,0,0-.88,1.66,7.314,7.314,0,0,0-.3,1.56h10.63A7.618,7.618,0,0,0,2232.11,1035.46Zm-7.39,12.51a6.692,6.692,0,0,0,7.64.44,4.159,4.159,0,0,0,1.75-2.09h5.75a10.943,10.943,0,0,1-4.23,6.12,12.553,12.553,0,0,1-6.9,1.84,13.535,13.535,0,0,1-5.06-.9,10.513,10.513,0,0,1-3.82-2.55,11.691,11.691,0,0,1-2.42-3.96,14.637,14.637,0,0,1-.85-5.06,13.746,13.746,0,0,1,.88-4.97,11.7,11.7,0,0,1,2.48-3.98,11.544,11.544,0,0,1,3.84-2.64,12.248,12.248,0,0,1,4.95-.97,11.365,11.365,0,0,1,5.29,1.17,10.7,10.7,0,0,1,3.7,3.16,12.828,12.828,0,0,1,2.09,4.5,16.857,16.857,0,0,1,.46,5.29h-17.16A6.638,6.638,0,0,0,2224.72,1047.97Zm38.46-10.76a3.667,3.667,0,0,1,1.29-2.76,4.956,4.956,0,0,1,3.03-.83,10.531,10.531,0,0,1,1.64.12,3.5,3.5,0,0,1,1.33.46,2.574,2.574,0,0,1,.92.96,3.5,3.5,0,0,1,.35,1.68,1.757,1.757,0,0,1-.6,1.54,4.382,4.382,0,0,1-1.75.81,17.851,17.851,0,0,1-2.53.41c-0.95.09-1.92,0.22-2.9,0.37a27.1,27.1,0,0,0-2.92.62,8.269,8.269,0,0,0-2.57,1.17,5.872,5.872,0,0,0-1.84,2.1,6.845,6.845,0,0,0-.72,3.33,7.547,7.547,0,0,0,.62,3.18,5.974,5.974,0,0,0,1.73,2.2,7,7,0,0,0,2.57,1.29,11.586,11.586,0,0,0,3.18.42,14.735,14.735,0,0,0,4.32-.65,8.53,8.53,0,0,0,3.68-2.25,9.513,9.513,0,0,0,.46,2.3h6.63a5.479,5.479,0,0,1-.65-2.21,25.387,25.387,0,0,1-.18-3.08v-12.38a5.666,5.666,0,0,0-.97-3.47,6.627,6.627,0,0,0-2.48-2.05,11.142,11.142,0,0,0-3.36-.99,28.158,28.158,0,0,0-3.63-.25,20.167,20.167,0,0,0-3.94.39,11.4,11.4,0,0,0-3.52,1.31,7.888,7.888,0,0,0-2.57,2.44,7.528,7.528,0,0,0-1.15,3.82h6.53Zm8.56,7.27a11.867,11.867,0,0,1-.12,1.47,4.985,4.985,0,0,1-.62,1.82,4.426,4.426,0,0,1-1.56,1.54,5.8,5.8,0,0,1-2.99.64,7.54,7.54,0,0,1-1.52-.14,3.677,3.677,0,0,1-1.29-.48,2.391,2.391,0,0,1-.87-0.94,3.014,3.014,0,0,1-.33-1.47,3.111,3.111,0,0,1,.33-1.52,2.807,2.807,0,0,1,.85-0.99,4.117,4.117,0,0,1,1.24-.62,10.271,10.271,0,0,1,1.45-.37c0.52-.09,1.04-0.17,1.56-0.23s1.02-.14,1.5-0.23a9.915,9.915,0,0,0,1.33-.35,2.745,2.745,0,0,0,1.04-.57v2.44Zm17.48,9.2-8.15-23.78h6.86l5.01,16.23h0.09l5.02-16.23h6.48l-8.05,23.78h-7.26Zm32.4-18.22a4.576,4.576,0,0,0-3.56-1.29,5.7,5.7,0,0,0-2.6.53,5.137,5.137,0,0,0-1.66,1.31,5.006,5.006,0,0,0-.87,1.66,7.314,7.314,0,0,0-.3,1.56h10.63A7.621,7.621,0,0,0,2321.62,1035.46Zm-7.38,12.51a6.693,6.693,0,0,0,7.64.44,4.083,4.083,0,0,0,1.74-2.09h5.75a10.943,10.943,0,0,1-4.23,6.12,12.506,12.506,0,0,1-6.9,1.84,13.535,13.535,0,0,1-5.06-.9,10.685,10.685,0,0,1-3.82-2.55,11.669,11.669,0,0,1-2.41-3.96,14.406,14.406,0,0,1-.85-5.06,13.959,13.959,0,0,1,.87-4.97,11.5,11.5,0,0,1,6.33-6.62,12.166,12.166,0,0,1,4.94-.97,11.308,11.308,0,0,1,5.29,1.17,10.611,10.611,0,0,1,3.7,3.16,12.846,12.846,0,0,1,2.1,4.5,16.857,16.857,0,0,1,.46,5.29h-17.16A6.592,6.592,0,0,0,2314.24,1047.97Zm30.77-13.8a4.563,4.563,0,0,0-2.62.72,5.619,5.619,0,0,0-1.72,1.84,7.985,7.985,0,0,0-.95,2.48,13.788,13.788,0,0,0-.27,2.69,13.171,13.171,0,0,0,.27,2.62,8.416,8.416,0,0,0,.9,2.42,5.08,5.08,0,0,0,1.68,1.77,4.586,4.586,0,0,0,2.57.69,4.823,4.823,0,0,0,3.62-1.31,6.214,6.214,0,0,0,1.58-3.52h6.3a10.692,10.692,0,0,1-3.68,7.22,11.837,11.837,0,0,1-7.77,2.49,12.988,12.988,0,0,1-4.9-.9,10.737,10.737,0,0,1-3.79-2.51,11.207,11.207,0,0,1-2.44-3.84,13.386,13.386,0,0,1-.88-4.9,15.763,15.763,0,0,1,.81-5.13,11.608,11.608,0,0,1,2.37-4.09,10.709,10.709,0,0,1,3.82-2.69,12.855,12.855,0,0,1,5.15-.97,15.2,15.2,0,0,1,4.07.55,11.02,11.02,0,0,1,3.5,1.68,8.748,8.748,0,0,1,3.61,6.79h-6.4q-0.645-4.1-4.83-4.1h0Z" transform="translate(-2035.66 -1020.84)"/>
</svg>
