<svg xmlns="http://www.w3.org/2000/svg" width="237.72" height="34.35" viewBox="0 0 237.72 34.35">
  <metadata><?xpacket begin="﻿" id="W5M0MpCehiHzreSzNTczkc9d"?>
<x:xmpmeta xmlns:x="adobe:ns:meta/" x:xmptk="Adobe XMP Core 5.6-c138 79.159824, 2016/09/14-01:09:01        ">
   <rdf:RDF xmlns:rdf="http://www.w3.org/1999/02/22-rdf-syntax-ns#">
      <rdf:Description rdf:about=""/>
   </rdf:RDF>
</x:xmpmeta>
                                                                                                    
                                                                                                    
                                                                                                    
                                                                                                    
                                                                                                    
                                                                                                    
                                                                                                    
                                                                                                    
                                                                                                    
                                                                                                    
                                                                                                    
                                                                                                    
                                                                                                    
                                                                                                    
                                                                                                    
                                                                                                    
                                                                                                    
                                                                                                    
                                                                                                    
                                                                                                    
                           
<?xpacket end="w"?></metadata>
<defs>
    <style>
      .cls-1 {
        fill: #fff;
        fill-rule: evenodd;
      }
    </style>
  </defs>
  <path id="tba" class="cls-1" d="M2052.96,1344.98l-4.14-12.05h-0.09l-4.28,12.05h8.51Zm-0.41-20.15,12.28,32.85h-7.5l-2.48-7.32h-12.28l-2.58,7.32h-7.27l12.42-32.85h7.41Zm28.8,26.78a9.18,9.18,0,0,0,3.03-.51,6.692,6.692,0,0,0,2.62-1.68,8.357,8.357,0,0,0,1.84-3.06,13.465,13.465,0,0,0,.69-4.6,19.233,19.233,0,0,0-.48-4.48,8.832,8.832,0,0,0-1.59-3.43,7.055,7.055,0,0,0-2.92-2.19,11.75,11.75,0,0,0-4.48-.75h-5.15v20.7h6.44Zm0.5-26.78a16.753,16.753,0,0,1,5.91,1.02,12.683,12.683,0,0,1,4.74,3.03,14.1,14.1,0,0,1,3.13,5.06,20.517,20.517,0,0,1,1.13,7.13,22.948,22.948,0,0,1-.92,6.63,14.722,14.722,0,0,1-2.79,5.24,13.025,13.025,0,0,1-4.64,3.47,15.638,15.638,0,0,1-6.56,1.27h-14.17v-32.85h14.17Zm25.44,24.75a5.156,5.156,0,0,0,1.59,1.86,6.769,6.769,0,0,0,2.32,1.06,10.989,10.989,0,0,0,2.76.35,15.612,15.612,0,0,0,2.07-.16,7.425,7.425,0,0,0,2.07-.62,4.57,4.57,0,0,0,1.61-1.27,3.179,3.179,0,0,0,.64-2.05,2.862,2.862,0,0,0-.85-2.16,6.838,6.838,0,0,0-2.23-1.38,21.135,21.135,0,0,0-3.13-.96c-1.16-.28-2.34-0.59-3.54-0.92a33.273,33.273,0,0,1-3.59-1.13,12.4,12.4,0,0,1-3.12-1.73,7.688,7.688,0,0,1-3.09-6.48,8.645,8.645,0,0,1,1.08-4.4,9.879,9.879,0,0,1,2.83-3.1,12.4,12.4,0,0,1,3.96-1.84,16.749,16.749,0,0,1,4.42-.6,20.561,20.561,0,0,1,4.94.58,12.268,12.268,0,0,1,4.21,1.86,9.345,9.345,0,0,1,2.92,3.29,10.075,10.075,0,0,1,1.08,4.85h-6.99a5.867,5.867,0,0,0-.62-2.44,4,4,0,0,0-1.4-1.51,6.078,6.078,0,0,0-2.01-.79,12.544,12.544,0,0,0-2.46-.23,8.583,8.583,0,0,0-1.74.19,4.662,4.662,0,0,0-1.59.64,3.891,3.891,0,0,0-1.17,1.15,3.058,3.058,0,0,0-.46,1.75,2.978,2.978,0,0,0,.36,1.56,3.336,3.336,0,0,0,1.45,1.11,18.607,18.607,0,0,0,2.99,1.01c1.27,0.34,2.94.77,4.99,1.29,0.62,0.12,1.47.34,2.56,0.66a12.44,12.44,0,0,1,3.24,1.55,9.713,9.713,0,0,1,2.78,2.82,8.122,8.122,0,0,1,1.18,4.54,10.07,10.07,0,0,1-.88,4.18,9.106,9.106,0,0,1-2.6,3.34,12.5,12.5,0,0,1-4.28,2.18,20.249,20.249,0,0,1-5.91.78,20.888,20.888,0,0,1-5.26-.66,13.282,13.282,0,0,1-4.51-2.1,10.317,10.317,0,0,1-3.11-3.63,10.921,10.921,0,0,1-1.1-5.24h6.99A5.974,5.974,0,0,0,2107.29,1349.58Zm31.56-24.75v26.78h16v6.07h-23.23v-32.85h7.23Zm38.4,16.38a3.737,3.737,0,0,1,1.29-2.76,4.988,4.988,0,0,1,3.04-.83,10.4,10.4,0,0,1,1.63.12,3.548,3.548,0,0,1,1.34.46,2.574,2.574,0,0,1,.92.96,3.5,3.5,0,0,1,.34,1.68,1.757,1.757,0,0,1-.6,1.54,4.382,4.382,0,0,1-1.75.81,17.615,17.615,0,0,1-2.53.41c-0.95.09-1.91,0.22-2.89,0.37a26.115,26.115,0,0,0-2.92.62,8.221,8.221,0,0,0-2.58,1.17,5.969,5.969,0,0,0-1.84,2.1,6.848,6.848,0,0,0-.71,3.33,7.4,7.4,0,0,0,.62,3.18,5.95,5.95,0,0,0,1.72,2.2,7.119,7.119,0,0,0,2.58,1.29,11.513,11.513,0,0,0,3.17.42,14.8,14.8,0,0,0,4.33-.65,8.589,8.589,0,0,0,3.68-2.25,8.906,8.906,0,0,0,.16,1.17,7.535,7.535,0,0,0,.3,1.13h6.62a5.494,5.494,0,0,1-.64-2.21,23.477,23.477,0,0,1-.19-3.08v-12.38a5.731,5.731,0,0,0-.96-3.47,6.738,6.738,0,0,0-2.49-2.05,11.142,11.142,0,0,0-3.36-.99,27.916,27.916,0,0,0-3.63-.25,19.991,19.991,0,0,0-3.93.39,11.209,11.209,0,0,0-3.52,1.31,8.02,8.02,0,0,0-2.58,2.44,7.626,7.626,0,0,0-1.15,3.82h6.53Zm8.56,7.27a13.751,13.751,0,0,1-.11,1.47,5.009,5.009,0,0,1-.63,1.82,4.265,4.265,0,0,1-1.56,1.54,5.777,5.777,0,0,1-2.99.64,7.608,7.608,0,0,1-1.52-.14,3.677,3.677,0,0,1-1.29-.48,2.466,2.466,0,0,1-.87-0.94,3.131,3.131,0,0,1-.32-1.47,3.232,3.232,0,0,1,.32-1.52,2.912,2.912,0,0,1,.85-0.99,4.238,4.238,0,0,1,1.24-.62,10.631,10.631,0,0,1,1.45-.37c0.52-.09,1.04-0.17,1.57-0.23s1.02-.14,1.49-0.23a10.068,10.068,0,0,0,1.34-.35,2.779,2.779,0,0,0,1.03-.57v2.44Zm17.48,9.2-8.14-23.78H2202l5.02,16.23h0.09l5.01-16.23h6.49l-8.05,23.78h-7.27Zm32.41-18.22a4.6,4.6,0,0,0-3.57-1.29,5.729,5.729,0,0,0-2.6.53,4.989,4.989,0,0,0-1.65,1.31,4.858,4.858,0,0,0-.88,1.66,7.314,7.314,0,0,0-.3,1.56h10.63A7.618,7.618,0,0,0,2235.7,1339.46Zm-7.39,12.51a6.692,6.692,0,0,0,7.64.44,4.159,4.159,0,0,0,1.75-2.09h5.75a10.943,10.943,0,0,1-4.23,6.12,12.553,12.553,0,0,1-6.9,1.84,13.5,13.5,0,0,1-5.06-.9,10.513,10.513,0,0,1-3.82-2.55,11.536,11.536,0,0,1-2.42-3.96,14.406,14.406,0,0,1-.85-5.06,13.746,13.746,0,0,1,.88-4.97,11.7,11.7,0,0,1,2.48-3.98,11.544,11.544,0,0,1,3.84-2.64,12.248,12.248,0,0,1,4.95-.97,11.365,11.365,0,0,1,5.29,1.17,10.7,10.7,0,0,1,3.7,3.16,13.007,13.007,0,0,1,2.09,4.5,16.857,16.857,0,0,1,.46,5.29H2226.7A6.638,6.638,0,0,0,2228.31,1351.97Zm30.78-13.8a4.519,4.519,0,0,0-2.62.72,5.545,5.545,0,0,0-1.73,1.84,7.968,7.968,0,0,0-.94,2.48,13.078,13.078,0,0,0-.28,2.69,12.492,12.492,0,0,0,.28,2.62,8.119,8.119,0,0,0,.89,2.42,5.267,5.267,0,0,0,1.68,1.77,4.643,4.643,0,0,0,2.58.69,4.8,4.8,0,0,0,3.61-1.31,6.289,6.289,0,0,0,1.59-3.52h6.3a10.775,10.775,0,0,1-3.68,7.22,11.855,11.855,0,0,1-7.77,2.49,12.951,12.951,0,0,1-4.9-.9,10.778,10.778,0,0,1-3.8-2.51,11.513,11.513,0,0,1-2.44-3.84,13.384,13.384,0,0,1-.87-4.9,16.035,16.035,0,0,1,.8-5.13,11.608,11.608,0,0,1,2.37-4.09,10.888,10.888,0,0,1,3.82-2.69,12.855,12.855,0,0,1,5.15-.97,15.2,15.2,0,0,1,4.07.55,10.918,10.918,0,0,1,3.5,1.68,8.671,8.671,0,0,1,3.61,6.79h-6.39q-0.645-4.1-4.83-4.1h0Z" transform="translate(-2032.72 -1324.06)"/>
</svg>
