<svg xmlns="http://www.w3.org/2000/svg" width="244.561" height="20.9" viewBox="0 0 244.561 20.9">
  <metadata><?xpacket begin="﻿" id="W5M0MpCehiHzreSzNTczkc9d"?>
<x:xmpmeta xmlns:x="adobe:ns:meta/" x:xmptk="Adobe XMP Core 5.6-c138 79.159824, 2016/09/14-01:09:01        ">
   <rdf:RDF xmlns:rdf="http://www.w3.org/1999/02/22-rdf-syntax-ns#">
      <rdf:Description rdf:about=""/>
   </rdf:RDF>
</x:xmpmeta>
                                                                                                    
                                                                                                    
                                                                                                    
                                                                                                    
                                                                                                    
                                                                                                    
                                                                                                    
                                                                                                    
                                                                                                    
                                                                                                    
                                                                                                    
                                                                                                    
                                                                                                    
                                                                                                    
                                                                                                    
                                                                                                    
                                                                                                    
                                                                                                    
                                                                                                    
                                                                                                    
                           
<?xpacket end="w"?></metadata>
<defs>
    <style>
      .cls-1 {
        fill: #ff7900;
        fill-rule: evenodd;
      }
    </style>
  </defs>
  <path id="tbb" class="cls-1" d="M941.337,1263.01l-2.07-6.03h-0.046l-2.139,6.03h4.255Zm-0.207-10.07,6.141,16.42h-3.749l-1.242-3.66h-6.141l-1.288,3.66h-3.634l6.21-16.42h3.7Zm12.9,6.67a2.271,2.271,0,0,0-1.311.35,2.91,2.91,0,0,0-.863.92,4.033,4.033,0,0,0-.471,1.24,6.874,6.874,0,0,0-.138,1.35,6.411,6.411,0,0,0,.138,1.31,4.013,4.013,0,0,0,.448,1.21,2.562,2.562,0,0,0,.84.88,2.307,2.307,0,0,0,1.288.35,2.383,2.383,0,0,0,1.8-.66,3.071,3.071,0,0,0,.794-1.76h3.151a5.368,5.368,0,0,1-1.84,3.61,5.932,5.932,0,0,1-3.887,1.25,6.49,6.49,0,0,1-2.45-.45,5.406,5.406,0,0,1-1.9-1.26,5.566,5.566,0,0,1-1.219-1.92,6.632,6.632,0,0,1-.437-2.45,7.9,7.9,0,0,1,.4-2.56,5.81,5.81,0,0,1,1.185-2.05,5.437,5.437,0,0,1,1.909-1.34,6.519,6.519,0,0,1,2.576-.49,7.615,7.615,0,0,1,2.035.28,5.267,5.267,0,0,1,1.748.84,4.327,4.327,0,0,1,1.806,3.39h-3.2a2.188,2.188,0,0,0-2.415-2.04h0Zm13.2,0a2.275,2.275,0,0,0-1.311.35,2.918,2.918,0,0,0-.862.92,4.01,4.01,0,0,0-.472,1.24,6.874,6.874,0,0,0-.138,1.35,6.411,6.411,0,0,0,.138,1.31,4.014,4.014,0,0,0,.449,1.21,2.568,2.568,0,0,0,.839.88,2.31,2.31,0,0,0,1.288.35,2.385,2.385,0,0,0,1.806-.66,3.07,3.07,0,0,0,.793-1.76h3.151a5.364,5.364,0,0,1-1.84,3.61,5.93,5.93,0,0,1-3.887,1.25,6.485,6.485,0,0,1-2.449-.45,5.419,5.419,0,0,1-1.9-1.26,5.6,5.6,0,0,1-1.219-1.92,6.653,6.653,0,0,1-.437-2.45,7.878,7.878,0,0,1,.4-2.56,5.823,5.823,0,0,1,1.184-2.05,5.456,5.456,0,0,1,1.909-1.34,6.523,6.523,0,0,1,2.576-.49,7.616,7.616,0,0,1,2.036.28,5.276,5.276,0,0,1,1.748.84,4.33,4.33,0,0,1,1.8,3.39h-3.2a2.187,2.187,0,0,0-2.415-2.04h0Zm10.557,5.21a3.661,3.661,0,0,0,.472,1.21,2.577,2.577,0,0,0,.885.87,2.751,2.751,0,0,0,1.38.32,2.82,2.82,0,0,0,1.392-.32,2.561,2.561,0,0,0,.9-0.87,3.681,3.681,0,0,0,.471-1.21,7.071,7.071,0,0,0,.138-1.4,7.146,7.146,0,0,0-.138-1.4,3.57,3.57,0,0,0-.471-1.22,2.623,2.623,0,0,0-.9-0.86,2.716,2.716,0,0,0-1.392-.33,2.5,2.5,0,0,0-2.265,1.19,3.551,3.551,0,0,0-.472,1.22,7.146,7.146,0,0,0-.138,1.4A7.071,7.071,0,0,0,977.791,1264.82Zm-2.967-3.98a5.46,5.46,0,0,1,3.174-3.25,6.771,6.771,0,0,1,2.53-.45,6.865,6.865,0,0,1,2.542.45,5.438,5.438,0,0,1,3.185,3.25,7.835,7.835,0,0,1,0,5.16,5.615,5.615,0,0,1-1.242,1.97,5.446,5.446,0,0,1-1.943,1.25,7.076,7.076,0,0,1-2.542.44,6.978,6.978,0,0,1-2.53-.44,5.472,5.472,0,0,1-1.932-1.25,5.615,5.615,0,0,1-1.242-1.97A7.835,7.835,0,0,1,974.824,1260.84Zm17.158-3.37v1.61h0.046a4.618,4.618,0,0,1,1.553-1.43,4.175,4.175,0,0,1,2.081-.51,4.811,4.811,0,0,1,2.059.44,2.906,2.906,0,0,1,1.414,1.54,5.128,5.128,0,0,1,1.435-1.38,3.839,3.839,0,0,1,2.15-.6,6.5,6.5,0,0,1,1.75.23,3.326,3.326,0,0,1,2.28,2.06,5.494,5.494,0,0,1,.32,1.97v7.96h-3.27v-6.74c0-.4-0.01-0.78-0.04-1.13a2.539,2.539,0,0,0-.25-0.92,1.58,1.58,0,0,0-.61-0.62,2.278,2.278,0,0,0-1.1-.23,2.027,2.027,0,0,0-1.11.27,1.777,1.777,0,0,0-.67.69,2.714,2.714,0,0,0-.321.96,7.4,7.4,0,0,0-.081,1.09v6.63h-3.266v-6.67q0-.525-0.023-1.05a2.921,2.921,0,0,0-.195-0.95,1.444,1.444,0,0,0-.575-0.7,2.138,2.138,0,0,0-1.185-.27,2.909,2.909,0,0,0-.609.1,1.939,1.939,0,0,0-.736.4,2.239,2.239,0,0,0-.61.82,3.39,3.39,0,0,0-.253,1.42v6.9H988.9v-11.89h3.082Zm25.008,9.43a2.723,2.723,0,0,0,.88-0.84,3.515,3.515,0,0,0,.47-1.21,7.3,7.3,0,0,0,.14-1.4,6.618,6.618,0,0,0-.15-1.41,3.745,3.745,0,0,0-.5-1.23,2.709,2.709,0,0,0-.88-0.87,2.486,2.486,0,0,0-1.32-.33,2.548,2.548,0,0,0-1.35.33,2.649,2.649,0,0,0-.87.86,3.58,3.58,0,0,0-.48,1.22,7.459,7.459,0,0,0-.13,1.43,6.6,6.6,0,0,0,.15,1.4,3.738,3.738,0,0,0,.48,1.21,2.723,2.723,0,0,0,.88.84,2.684,2.684,0,0,0,1.34.32A2.606,2.606,0,0,0,1016.99,1266.9Zm-4.24-9.43v1.51h0.05a3.61,3.61,0,0,1,1.51-1.4,4.713,4.713,0,0,1,2.03-.44,5.164,5.164,0,0,1,2.41.53,4.914,4.914,0,0,1,1.68,1.41,5.74,5.74,0,0,1,.99,2.03,8.9,8.9,0,0,1,.32,2.43,7.989,7.989,0,0,1-.32,2.3,5.684,5.684,0,0,1-.98,1.95,4.79,4.79,0,0,1-1.63,1.36,4.865,4.865,0,0,1-2.29.51,4.609,4.609,0,0,1-2.03-.45,3.893,3.893,0,0,1-1.53-1.32h-0.05v5.63h-3.26v-16.05h3.1Zm14.08,3.65a1.849,1.849,0,0,1,.64-1.38,2.518,2.518,0,0,1,1.52-.41,5.359,5.359,0,0,1,.82.06,1.725,1.725,0,0,1,.66.23,1.184,1.184,0,0,1,.46.48,1.7,1.7,0,0,1,.17.84,0.879,0.879,0,0,1-.29.77,2.177,2.177,0,0,1-.88.4,9.713,9.713,0,0,1-1.26.21c-0.48.05-.96,0.11-1.45,0.18a14.574,14.574,0,0,0-1.46.31,4.018,4.018,0,0,0-1.29.59,2.942,2.942,0,0,0-.92,1.05,3.4,3.4,0,0,0-.36,1.66,3.819,3.819,0,0,0,.31,1.59,3.076,3.076,0,0,0,.87,1.11,3.584,3.584,0,0,0,1.28.64,5.767,5.767,0,0,0,1.59.21,7.162,7.162,0,0,0,2.16-.33,4.226,4.226,0,0,0,1.84-1.12,5.4,5.4,0,0,0,.08.58,5.3,5.3,0,0,0,.15.57h3.31a2.886,2.886,0,0,1-.32-1.11,12.633,12.633,0,0,1-.09-1.54v-6.18a2.892,2.892,0,0,0-.48-1.74,3.247,3.247,0,0,0-1.24-1.02,5.662,5.662,0,0,0-1.68-.5,14.173,14.173,0,0,0-1.82-.13,10.051,10.051,0,0,0-1.97.2,5.536,5.536,0,0,0-1.76.66,3.8,3.8,0,0,0-1.28,1.21,3.847,3.847,0,0,0-.58,1.91h3.27Zm4.27,3.64a5.546,5.546,0,0,1-.05.73,2.462,2.462,0,0,1-.31.91,2.091,2.091,0,0,1-.79.77,2.82,2.82,0,0,1-1.49.32,4.772,4.772,0,0,1-.76-0.06,1.822,1.822,0,0,1-.64-0.25,1.175,1.175,0,0,1-.44-0.47,1.487,1.487,0,0,1-.16-0.73,1.557,1.557,0,0,1,.16-0.76,1.487,1.487,0,0,1,.43-0.5,2.117,2.117,0,0,1,.62-0.31,5.829,5.829,0,0,1,.72-0.18q0.39-.075.78-0.12c0.26-.03.51-0.07,0.75-0.11a5.952,5.952,0,0,0,.67-0.17,1.481,1.481,0,0,0,.51-0.29v1.22Zm12.56,1.52a2.638,2.638,0,0,0,.88-0.74,3.2,3.2,0,0,0,.51-1.05,4.159,4.159,0,0,0,.18-1.23,6.9,6.9,0,0,0-.14-1.39,3.522,3.522,0,0,0-.46-1.16,2.441,2.441,0,0,0-.85-0.81,2.827,2.827,0,0,0-1.34-.29,2.421,2.421,0,0,0-1.18.27,2.593,2.593,0,0,0-.83.75,3.124,3.124,0,0,0-.48,1.08,5.343,5.343,0,0,0-.15,1.28,6.746,6.746,0,0,0,.12,1.27,3.473,3.473,0,0,0,.44,1.14,2.5,2.5,0,0,0,.82.83,2.357,2.357,0,0,0,1.26.32A2.642,2.642,0,0,0,1043.66,1266.28Zm4.48,3.95a4.064,4.064,0,0,1-.84,1.72,5.091,5.091,0,0,1-1.87,1.34,7.976,7.976,0,0,1-3.26.55,7.429,7.429,0,0,1-1.79-.22,5.721,5.721,0,0,1-1.65-.67,4.141,4.141,0,0,1-1.24-1.19,3.459,3.459,0,0,1-.57-1.74h3.25a1.858,1.858,0,0,0,.89,1.28,3.212,3.212,0,0,0,1.54.36,2.391,2.391,0,0,0,2.02-.83,3.282,3.282,0,0,0,.61-2.09v-1.57h-0.05a3.138,3.138,0,0,1-1.51,1.39,4.825,4.825,0,0,1-2.05.45,5.1,5.1,0,0,1-2.3-.47,4.2,4.2,0,0,1-1.59-1.29,5.207,5.207,0,0,1-.91-1.91,9.022,9.022,0,0,1-.29-2.31,7.247,7.247,0,0,1,.34-2.22,5.686,5.686,0,0,1,.97-1.88,4.708,4.708,0,0,1,1.6-1.3,4.848,4.848,0,0,1,2.2-.49,4.627,4.627,0,0,1,2.06.44,3.542,3.542,0,0,1,1.48,1.47h0.05v-1.58h3.1v11.13A7.932,7.932,0,0,1,1048.14,1270.23Zm5.92-12.76v1.65h0.07a3.681,3.681,0,0,1,1.61-1.5,4.573,4.573,0,0,1,2.02-.48,5.477,5.477,0,0,1,2.15.36,3.2,3.2,0,0,1,1.32.99,3.738,3.738,0,0,1,.68,1.54,9.641,9.641,0,0,1,.2,2.01v7.32h-3.27v-6.72a4.105,4.105,0,0,0-.46-2.19,1.759,1.759,0,0,0-1.63-.73,2.282,2.282,0,0,0-1.93.79,4.4,4.4,0,0,0-.6,2.61v6.24h-3.27v-11.89h3.11Zm17.72,2.78a2.293,2.293,0,0,0-1.78-.64,2.789,2.789,0,0,0-1.3.26,2.527,2.527,0,0,0-.83.66,2.428,2.428,0,0,0-.44.82,4.679,4.679,0,0,0-.15.79h5.32A3.854,3.854,0,0,0,1071.78,1260.25Zm-3.69,6.26a3.344,3.344,0,0,0,3.82.21,2.064,2.064,0,0,0,.87-1.04h2.87a5.5,5.5,0,0,1-2.11,3.06,6.253,6.253,0,0,1-3.45.92,6.749,6.749,0,0,1-2.53-.45,5.31,5.31,0,0,1-1.91-1.28,5.827,5.827,0,0,1-1.21-1.98,7.3,7.3,0,0,1-.42-2.53,6.95,6.95,0,0,1,.43-2.48,5.9,5.9,0,0,1,1.25-1.99,5.672,5.672,0,0,1,1.92-1.32,6.151,6.151,0,0,1,2.47-.49,5.648,5.648,0,0,1,2.64.59,5.288,5.288,0,0,1,1.86,1.58,6.447,6.447,0,0,1,1.04,2.25,8.3,8.3,0,0,1,.23,2.65h-8.58A3.349,3.349,0,0,0,1068.09,1266.51Zm12.88-9.04v1.61h0.04a4.611,4.611,0,0,1,1.56-1.43,4.164,4.164,0,0,1,2.08-.51,4.815,4.815,0,0,1,2.06.44,2.9,2.9,0,0,1,1.41,1.54,5.017,5.017,0,0,1,1.44-1.38,3.793,3.793,0,0,1,2.15-.6,6.5,6.5,0,0,1,1.75.23,3.677,3.677,0,0,1,1.38.74,3.386,3.386,0,0,1,.89,1.32,5.274,5.274,0,0,1,.33,1.97v7.96h-3.27v-6.74c0-.4-0.02-0.78-0.05-1.13a2.355,2.355,0,0,0-.25-0.92,1.517,1.517,0,0,0-.61-0.62,2.235,2.235,0,0,0-1.09-.23,2.087,2.087,0,0,0-1.12.27,1.823,1.823,0,0,0-.66.69,2.869,2.869,0,0,0-.33.96,7.994,7.994,0,0,0-.08,1.09v6.63h-3.26v-6.67q0-.525-0.03-1.05a2.919,2.919,0,0,0-.19-0.95,1.47,1.47,0,0,0-.58-0.7,2.1,2.1,0,0,0-1.18-.27,2.917,2.917,0,0,0-.61.1,2,2,0,0,0-.74.4,2.343,2.343,0,0,0-.61.82,3.544,3.544,0,0,0-.25,1.42v6.9h-3.26v-11.89h3.08Zm24.85,2.78a2.293,2.293,0,0,0-1.78-.64,2.789,2.789,0,0,0-1.3.26,2.527,2.527,0,0,0-.83.66,2.428,2.428,0,0,0-.44.82,4.679,4.679,0,0,0-.15.79h5.32A3.854,3.854,0,0,0,1105.82,1260.25Zm-3.69,6.26a3.344,3.344,0,0,0,3.82.21,2.064,2.064,0,0,0,.87-1.04h2.87a5.5,5.5,0,0,1-2.11,3.06,6.253,6.253,0,0,1-3.45.92,6.749,6.749,0,0,1-2.53-.45,5.31,5.31,0,0,1-1.91-1.28,5.827,5.827,0,0,1-1.21-1.98,7.3,7.3,0,0,1-.42-2.53,6.95,6.95,0,0,1,.43-2.48,5.752,5.752,0,0,1,1.25-1.99,5.672,5.672,0,0,1,1.92-1.32,6.151,6.151,0,0,1,2.47-.49,5.648,5.648,0,0,1,2.64.59,5.254,5.254,0,0,1,1.85,1.58,6.291,6.291,0,0,1,1.05,2.25,8.3,8.3,0,0,1,.23,2.65h-8.58A3.349,3.349,0,0,0,1102.13,1266.51Zm12.81-9.04v1.65h0.07a3.681,3.681,0,0,1,1.61-1.5,4.573,4.573,0,0,1,2.02-.48,5.477,5.477,0,0,1,2.15.36,3.2,3.2,0,0,1,1.32.99,3.738,3.738,0,0,1,.68,1.54,9.641,9.641,0,0,1,.2,2.01v7.32h-3.27v-6.72a4.105,4.105,0,0,0-.46-2.19,1.759,1.759,0,0,0-1.63-.73,2.282,2.282,0,0,0-1.93.79,4.4,4.4,0,0,0-.6,2.61v6.24h-3.27v-11.89h3.11Zm17.06,0v2.18h-2.39v5.89a1.111,1.111,0,0,0,1.38,1.38c0.19,0,.36-0.01.53-0.02s0.33-.04.48-0.07v2.53c-0.27.04-.58,0.07-0.92,0.09s-0.66.02-.99,0.02a9.351,9.351,0,0,1-1.43-.1,3.468,3.468,0,0,1-1.2-.4,2.234,2.234,0,0,1-.82-0.85,3.194,3.194,0,0,1-.29-1.45v-7.02h-1.98v-2.18h1.98v-3.57h3.26v3.57H1132Zm14.72,3.19a7.691,7.691,0,0,0,1.2-.09,2.877,2.877,0,0,0,1.01-.35,1.948,1.948,0,0,0,.7-0.75,2.6,2.6,0,0,0,.27-1.27,2.56,2.56,0,0,0-.27-1.26,1.948,1.948,0,0,0-.7-0.75,2.885,2.885,0,0,0-1.01-.36,7.691,7.691,0,0,0-1.2-.09h-2.8v4.92h2.8Zm0.99-7.72a7,7,0,0,1,2.62.44,4.838,4.838,0,0,1,1.76,1.19,4.351,4.351,0,0,1,.99,1.68,6.122,6.122,0,0,1,.31,1.95,6.212,6.212,0,0,1-.31,1.95,4.388,4.388,0,0,1-.99,1.69,4.82,4.82,0,0,1-1.76,1.18,6.8,6.8,0,0,1-2.62.45h-3.79v5.89h-3.61v-16.42h7.4Zm10.7,4.53v2.2h0.04a4.49,4.49,0,0,1,.62-1.02,4.269,4.269,0,0,1,.9-0.8,4.134,4.134,0,0,1,1.08-.52,4.016,4.016,0,0,1,1.2-.19,2.453,2.453,0,0,1,.71.12v3.04a5.526,5.526,0,0,0-.55-0.08,4.493,4.493,0,0,0-.62-0.04,3.461,3.461,0,0,0-1.52.3,2.6,2.6,0,0,0-1,.82,3.293,3.293,0,0,0-.54,1.2,6.45,6.45,0,0,0-.16,1.5v5.36h-3.27v-11.89h3.11Zm8.46,7.35a3.68,3.68,0,0,0,.47,1.21,2.645,2.645,0,0,0,.89.87,2.762,2.762,0,0,0,1.38.32,2.828,2.828,0,0,0,1.39-.32,2.587,2.587,0,0,0,.9-0.87,3.68,3.68,0,0,0,.47-1.21,7.225,7.225,0,0,0,.14-1.4,7.3,7.3,0,0,0-.14-1.4,3.569,3.569,0,0,0-.47-1.22,2.651,2.651,0,0,0-.9-0.86,2.724,2.724,0,0,0-1.39-.33,2.66,2.66,0,0,0-1.38.33,2.712,2.712,0,0,0-.89.86,3.569,3.569,0,0,0-.47,1.22,7.3,7.3,0,0,0-.14,1.4A7.225,7.225,0,0,0,1166.87,1264.82Zm-2.97-3.98a5.58,5.58,0,0,1,1.25-1.98,5.456,5.456,0,0,1,1.93-1.27,6.749,6.749,0,0,1,2.53-.45,6.877,6.877,0,0,1,2.54.45,5.409,5.409,0,0,1,1.94,1.27,5.58,5.58,0,0,1,1.25,1.98,7.955,7.955,0,0,1,0,5.16,5.719,5.719,0,0,1-1.25,1.97,5.365,5.365,0,0,1-1.94,1.25,7.088,7.088,0,0,1-2.54.44,6.955,6.955,0,0,1-2.53-.44,5.411,5.411,0,0,1-1.93-1.25,5.719,5.719,0,0,1-1.25-1.97A7.955,7.955,0,0,1,1163.9,1260.84Z" transform="translate(-931.219 -1252.94)"/>
</svg>
