<?xml version="1.0" encoding="utf-8"?>
<!-- Generator: Adobe Illustrator 21.1.0, SVG Export Plug-In . SVG Version: 6.00 Build 0)  -->
<svg version="1.1" id="Calque_1" xmlns="http://www.w3.org/2000/svg" xmlns:xlink="http://www.w3.org/1999/xlink" x="0px" y="0px"
	 viewBox="0 0 423.2 423.2" style="enable-background:new 0 0 423.2 423.2;" xml:space="preserve">
<style type="text/css">
	.st0{fill:#FF6600;}
	.st1{fill:#FFFFFF;}
</style>
<title>travail</title>
<path class="st0" d="M380.5,381H42.7V85h113.5c8-30.6,39.4-48.9,70-40.8c20,5.3,35.6,20.9,40.8,40.8h113.5V381z M423.2,0H0v423.2
	h423.2V0z"/>
<path class="st1" d="M113.5,185.7H96.3v-10.7h47.2v10.7h-17.3v47h-12.7L113.5,185.7z"/>
<path class="st1" d="M144.9,191h10.9v7.7h0.2c0.5-1.3,1.3-2.5,2.2-3.6c0.9-1.1,1.9-2,3.1-2.8c1.2-0.8,2.5-1.4,3.8-1.8
	c1.4-0.4,2.8-0.7,4.2-0.6c0.9,0,1.7,0.1,2.5,0.4v10.7c-0.5-0.1-1.2-0.2-1.9-0.3c-0.7-0.1-1.5-0.1-2.2-0.1c-1.8-0.1-3.7,0.3-5.3,1
	c-1.4,0.6-2.6,1.6-3.5,2.9c-0.9,1.3-1.6,2.7-1.9,4.3c-0.4,1.7-0.6,3.5-0.6,5.2v18.8h-11.5L144.9,191z"/>
<path class="st1" d="M171.8,203.8c0.1-2.4,0.8-4.7,2-6.7c1.2-1.8,2.7-3.3,4.5-4.3c1.9-1.1,4-1.9,6.2-2.3c2.3-0.5,4.6-0.7,6.9-0.7
	c2.1,0,4.3,0.2,6.4,0.4c2,0.3,4,0.9,5.9,1.7c1.7,0.8,3.2,2.1,4.4,3.6c1.2,1.8,1.8,3.9,1.7,6.1v21.7c0,1.8,0.1,3.6,0.3,5.4
	c0.1,1.4,0.5,2.7,1.1,3.9h-11.6c-0.2-0.7-0.4-1.3-0.5-2c-0.1-0.7-0.2-1.4-0.3-2.1c-1.8,1.9-4,3.2-6.5,4c-2.5,0.8-5,1.2-7.6,1.2
	c-1.9,0-3.8-0.2-5.6-0.8c-1.6-0.5-3.2-1.2-4.5-2.3c-1.3-1-2.4-2.4-3.1-3.9c-0.8-1.8-1.1-3.7-1.1-5.6c-0.1-2,0.4-4,1.2-5.9
	c0.8-1.5,1.9-2.7,3.2-3.7c1.4-0.9,2.9-1.6,4.5-2.1c1.7-0.5,3.4-0.8,5.1-1.1c1.7-0.3,3.4-0.5,5.1-0.6c1.5-0.1,3-0.4,4.4-0.7
	c1.1-0.2,2.2-0.7,3.1-1.4c0.8-0.7,1.2-1.7,1-2.7c0-1-0.2-2-0.6-2.9c-0.3-0.7-0.9-1.3-1.5-1.7c-0.7-0.4-1.5-0.7-2.3-0.8
	c-0.9-0.1-1.9-0.2-2.9-0.2c-1.9-0.1-3.8,0.4-5.3,1.4c-1.4,1.2-2.2,3-2.3,4.9L171.8,203.8z M198.3,212.3c-0.5,0.5-1.1,0.8-1.8,1
	c-0.8,0.3-1.5,0.5-2.3,0.6c-0.8,0.2-1.7,0.3-2.7,0.4c-0.9,0.1-1.8,0.2-2.7,0.4c-0.9,0.2-1.7,0.4-2.6,0.6c-0.8,0.3-1.5,0.6-2.1,1.1
	c-0.6,0.5-1.2,1.1-1.5,1.8c-0.4,0.8-0.6,1.7-0.6,2.6c0,0.9,0.2,1.8,0.6,2.6c0.4,0.6,0.9,1.2,1.5,1.5c0.7,0.4,1.5,0.7,2.3,0.8
	c0.9,0.2,1.8,0.2,2.7,0.2c1.8,0.1,3.6-0.3,5.3-1.1c1.1-0.7,2.1-1.6,2.7-2.7c0.6-1,0.9-2.1,1.1-3.2c0.1-0.9,0.2-1.7,0.2-2.6
	L198.3,212.3z"/>
<path class="st1" d="M237.8,232.8H225L210.7,191h12l8.8,28.5h0.2l8.8-28.5H252L237.8,232.8z"/>
<path class="st1" d="M252.1,203.8c0.1-2.4,0.8-4.7,2-6.7c1.2-1.8,2.7-3.3,4.5-4.3c1.9-1.1,4-1.9,6.2-2.3c2.3-0.5,4.6-0.7,6.9-0.7
	c2.1,0,4.3,0.2,6.4,0.4c2,0.3,4,0.9,5.9,1.7c1.7,0.8,3.2,2.1,4.4,3.6c1.2,1.8,1.8,3.9,1.7,6.1v21.7c0,1.8,0.1,3.6,0.3,5.4
	c0.1,1.4,0.5,2.7,1.1,3.9h-11.6c-0.2-0.7-0.4-1.3-0.5-2c-0.1-0.7-0.2-1.4-0.3-2.1c-1.8,1.9-4,3.2-6.5,4c-2.5,0.8-5,1.2-7.6,1.2
	c-1.9,0-3.8-0.2-5.6-0.8c-1.6-0.5-3.2-1.2-4.5-2.3c-1.3-1-2.4-2.4-3.1-3.9c-0.8-1.8-1.1-3.7-1.1-5.6c-0.1-2,0.4-4,1.2-5.9
	c0.8-1.5,1.9-2.7,3.2-3.7c1.4-0.9,2.9-1.6,4.5-2.1c1.7-0.5,3.4-0.8,5.1-1.1c1.7-0.3,3.4-0.5,5.1-0.6c1.5-0.1,3-0.4,4.4-0.7
	c1.1-0.2,2.2-0.7,3.1-1.4c0.8-0.7,1.2-1.7,1-2.7c0-1-0.2-2-0.6-2.9c-0.3-0.7-0.9-1.3-1.5-1.7c-0.7-0.4-1.5-0.7-2.3-0.8
	c-0.9-0.1-1.9-0.2-2.9-0.2c-1.9-0.1-3.8,0.4-5.3,1.4c-1.4,1.2-2.2,3-2.3,4.9L252.1,203.8z M278.5,212.3c-0.5,0.5-1.1,0.8-1.8,1
	c-0.8,0.3-1.5,0.5-2.3,0.6c-0.8,0.2-1.7,0.3-2.7,0.4c-0.9,0.1-1.8,0.2-2.7,0.4c-0.9,0.2-1.7,0.4-2.6,0.6c-0.8,0.3-1.5,0.6-2.1,1.1
	c-0.6,0.5-1.2,1.1-1.5,1.8c-0.4,0.8-0.6,1.7-0.6,2.6c0,0.9,0.2,1.8,0.6,2.6c0.4,0.6,0.9,1.2,1.5,1.5c0.7,0.4,1.5,0.7,2.3,0.8
	c0.9,0.2,1.8,0.2,2.7,0.2c1.8,0.1,3.6-0.3,5.3-1.1c1.1-0.7,2.1-1.6,2.7-2.7c0.6-1,0.9-2.1,1.1-3.2c0.1-0.9,0.2-1.7,0.2-2.6
	L278.5,212.3z"/>
<path class="st1" d="M306.6,184.5h-11.5v-9.5h11.5V184.5z M295.2,191h11.5v41.8h-11.5V191z"/>
<path class="st1" d="M312,175.1h11.5v57.7H312V175.1z"/>
</svg>
